<svg width="609" height="682" viewBox="0 0 609 682" fill="none" xmlns="http://www.w3.org/2000/svg">
<rect y="36" width="609" height="609" rx="304.5" fill="#2C2C32"/>
<path d="M158.371 509.5C153.038 509.5 148.704 508.333 145.371 506C142.371 503.333 140.538 500 139.871 496C139.538 491.667 140.538 486.833 142.871 481.5L280.371 168.5C283.371 161.833 286.871 157.167 290.871 154.5C295.204 151.5 299.871 150 304.871 150C309.871 150 314.371 151.5 318.371 154.5C322.704 157.167 326.204 161.833 328.871 168.5L466.871 481.5C469.538 486.833 470.538 491.667 469.871 496C469.538 500.333 467.871 503.667 464.871 506C461.871 508.333 457.704 509.5 452.371 509.5C446.371 509.5 441.538 508 437.871 505C434.204 501.667 431.204 497 428.871 491L391.871 405.5L411.871 416H196.871L217.371 405.5L180.871 491C177.871 497.333 174.704 502 171.371 505C168.038 508 163.704 509.5 158.371 509.5ZM304.371 201.5L223.871 391L211.871 381.5H396.871L385.871 391L305.371 201.5H304.371Z" fill="#59BDCF"/>
<path d="M145.371 506L144.707 506.747L144.75 506.786L144.798 506.819L145.371 506ZM139.871 496L138.874 496.077L138.877 496.121L138.885 496.164L139.871 496ZM142.871 481.5L141.956 481.098L141.955 481.099L142.871 481.5ZM280.371 168.5L279.459 168.09L279.456 168.098L280.371 168.5ZM290.871 154.5L291.426 155.332L291.433 155.327L291.44 155.322L290.871 154.5ZM318.371 154.5L317.771 155.3L317.808 155.328L317.847 155.352L318.371 154.5ZM328.871 168.5L327.943 168.871L327.949 168.888L327.956 168.903L328.871 168.5ZM466.871 481.5L465.956 481.903L465.966 481.926L465.977 481.947L466.871 481.5ZM469.871 496L468.883 495.848L468.877 495.885L468.874 495.923L469.871 496ZM464.871 506L465.485 506.789L464.871 506ZM437.871 505L437.198 505.74L437.218 505.757L437.238 505.774L437.871 505ZM428.871 491L429.803 490.638L429.796 490.62L429.789 490.603L428.871 491ZM391.871 405.5L392.336 404.615L389.829 403.298L390.953 405.897L391.871 405.5ZM411.871 416V417L412.336 415.115L411.871 416ZM196.871 416L196.415 415.11L196.871 417V416ZM217.371 405.5L218.291 405.893L219.377 403.349L216.915 404.61L217.371 405.5ZM180.871 491L181.775 491.428L181.783 491.411L181.791 491.393L180.871 491ZM171.371 505L172.04 505.743L171.371 505ZM304.371 201.5V200.5H303.709L303.451 201.109L304.371 201.5ZM223.871 391L223.25 391.784L224.279 392.598L224.791 391.391L223.871 391ZM211.871 381.5V380.5H208.997L211.25 382.284L211.871 381.5ZM396.871 381.5L397.525 382.257L399.559 380.5H396.871V381.5ZM385.871 391L384.951 391.391L385.487 392.653L386.525 391.757L385.871 391ZM305.371 201.5L306.292 201.109L306.033 200.5H305.371V201.5ZM158.371 508.5C153.18 508.5 149.065 507.365 145.945 505.181L144.798 506.819C148.344 509.302 152.896 510.5 158.371 510.5V508.5ZM146.035 505.253C143.208 502.739 141.487 499.613 140.857 495.836L138.885 496.164C139.589 500.387 141.534 503.927 144.707 506.747L146.035 505.253ZM140.868 495.923C140.551 491.799 141.498 487.133 143.787 481.901L141.955 481.099C139.577 486.534 138.525 491.534 138.874 496.077L140.868 495.923ZM143.787 481.902L281.287 168.902L279.456 168.098L141.956 481.098L143.787 481.902ZM281.283 168.91C284.243 162.332 287.643 157.854 291.426 155.332L290.316 153.668C286.099 156.48 282.499 161.334 279.459 168.09L281.283 168.91ZM291.44 155.322C295.616 152.431 300.086 151 304.871 151V149C299.656 149 294.793 150.569 290.302 153.678L291.44 155.322ZM304.871 151C309.655 151 313.944 152.43 317.771 155.3L318.971 153.7C314.798 150.57 310.087 149 304.871 149V151ZM317.847 155.352C321.936 157.868 325.324 162.324 327.943 168.871L329.8 168.129C327.085 161.342 323.473 156.465 318.895 153.648L317.847 155.352ZM327.956 168.903L465.956 481.903L467.786 481.097L329.786 168.097L327.956 168.903ZM465.977 481.947C468.583 487.161 469.508 491.781 468.883 495.848L470.859 496.152C471.567 491.552 470.492 486.506 467.766 481.053L465.977 481.947ZM468.874 495.923C468.559 500.02 467.002 503.076 464.257 505.211L465.485 506.789C468.74 504.257 470.517 500.646 470.868 496.077L468.874 495.923ZM464.257 505.211C461.491 507.362 457.57 508.5 452.371 508.5V510.5C457.839 510.5 462.251 509.305 465.485 506.789L464.257 505.211ZM452.371 508.5C446.539 508.5 441.949 507.044 438.504 504.226L437.238 505.774C441.126 508.956 446.203 510.5 452.371 510.5V508.5ZM438.544 504.26C435.021 501.057 432.097 496.535 429.803 490.638L427.939 491.362C430.312 497.465 433.388 502.276 437.198 505.74L438.544 504.26ZM429.789 490.603L392.789 405.103L390.953 405.897L427.953 491.397L429.789 490.603ZM391.406 406.385L411.406 416.885L412.336 415.115L392.336 404.615L391.406 406.385ZM411.871 415H196.871V417H411.871V415ZM197.327 416.89L217.827 406.39L216.915 404.61L196.415 415.11L197.327 416.89ZM216.451 405.107L179.951 490.607L181.791 491.393L218.291 405.893L216.451 405.107ZM179.967 490.572C176.996 496.846 173.898 501.381 170.702 504.257L172.04 505.743C175.511 502.619 178.747 497.821 181.775 491.428L179.967 490.572ZM170.702 504.257C167.586 507.061 163.507 508.5 158.371 508.5V510.5C163.902 510.5 168.489 508.939 172.04 505.743L170.702 504.257ZM303.451 201.109L222.951 390.609L224.791 391.391L305.292 201.891L303.451 201.109ZM224.492 390.216L212.492 380.716L211.25 382.284L223.25 391.784L224.492 390.216ZM211.871 382.5H396.871V380.5H211.871V382.5ZM396.217 380.743L385.217 390.243L386.525 391.757L397.525 382.257L396.217 380.743ZM386.792 390.609L306.292 201.109L304.451 201.891L384.951 391.391L386.792 390.609ZM305.371 200.5H304.371V202.5H305.371V200.5Z" fill="black"/>
</svg>
